<?xml version="1.0" encoding="UTF-8"?>
<!DOCTYPE svg PUBLIC "-//W3C//DTD SVG 1.1//EN" "http://www.w3.org/Graphics/SVG/1.1/DTD/svg11.dtd">
<!-- Creator: CorelDRAW -->
<svg xmlns="http://www.w3.org/2000/svg" xml:space="preserve" width="11.6929in" height="8.26772in" version="1.1" style="shape-rendering:geometricPrecision; text-rendering:geometricPrecision; image-rendering:optimizeQuality; fill-rule:evenodd; clip-rule:evenodd"
viewBox="0 0 11692.91 8267.72"
 xmlns:xlink="http://www.w3.org/1999/xlink"
 xmlns:xodm="http://www.corel.com/coreldraw/odm/2003">
 <defs>
  <style type="text/css">
   <![CDATA[
    .fil0 {fill:white}
   ]]>
  </style>
 </defs>
 <g id="Layer_x0020_1">
  <metadata id="CorelCorpID_0Corel-Layer"/>
  <path class="fil0" d="M5846.24 791.35c1908.55,0 3455.73,1547.18 3455.73,3455.73 0,1480 -930.48,2742.48 -2238.28,3234.92l-380.89 -2196.28c104.67,-48.52 267.25,-203.43 350.81,-296.88 348.74,-390 478.07,-989.37 315.35,-1499.51 -347.62,-1089.69 -1650.6,-1429.87 -2473.19,-771.92 -219.26,175.37 -417.52,411.7 -532.43,771.92 -114.79,359.86 -82.56,774.4 61.35,1098.07 83.1,186.92 223.21,391.23 372.85,521.96 67.91,59.33 146.2,136.4 231.02,176.16l-380.63 2196.15c-1307.34,-492.67 -2237.42,-1754.91 -2237.42,-3234.59 0,-1908.55 1547.18,-3455.73 3455.73,-3455.73z"/>
 </g>
</svg>
