<?xml version="1.0" encoding="UTF-8"?>
<!DOCTYPE svg PUBLIC "-//W3C//DTD SVG 1.1//EN" "http://www.w3.org/Graphics/SVG/1.1/DTD/svg11.dtd">
<!-- Creator: CorelDRAW -->
<svg xmlns="http://www.w3.org/2000/svg" xml:space="preserve" width="11.6929in" height="8.26772in" version="1.1" style="shape-rendering:geometricPrecision; text-rendering:geometricPrecision; image-rendering:optimizeQuality; fill-rule:evenodd; clip-rule:evenodd"
viewBox="0 0 11692.91 8267.72"
 xmlns:xlink="http://www.w3.org/1999/xlink"
 xmlns:xodm="http://www.corel.com/coreldraw/odm/2003">
 <defs>
  <style type="text/css">
   <![CDATA[
    .fil0 {fill:#1ED760}
   ]]>
  </style>
 </defs>
 <g id="Layer_x0020_1">
  <metadata id="CorelCorpID_0Corel-Layer"/>
  <path class="fil0" d="M5846.24 1723.6c1376.69,0 2492.71,1116.02 2492.71,2492.71 0,1067.56 -671.18,1978.22 -1614.53,2333.43l-274.75 -1584.24c75.5,-35 192.78,-146.74 253.05,-214.15 251.56,-281.31 344.85,-713.66 227.47,-1081.64 -250.75,-786.03 -1190.62,-1031.4 -1783.98,-556.8 -158.16,126.5 -301.17,296.97 -384.06,556.8 -82.8,259.58 -59.55,558.6 44.25,792.07 59.94,134.83 161.01,282.21 268.94,376.51 48.99,42.8 105.46,98.39 166.64,127.07l-274.56 1584.15c-943.02,-355.37 -1613.91,-1265.87 -1613.91,-2333.2 0,-1376.69 1116.02,-2492.71 2492.71,-2492.71z"/>
 </g>
</svg>
