<?xml version="1.0" encoding="UTF-8"?>
<svg id="Layer_2" data-name="Layer 2" xmlns="http://www.w3.org/2000/svg" viewBox="0 0 40.32 40.68">
  <defs>
    <style>
      .cls-1 {
        fill: #8dc63f;
      }
    </style>
  </defs>
  <g id="Layer_1-2" data-name="Layer 1">
    <path class="cls-1" d="m40.32,5.85c-2.18-1.96-4.34-3.9-6.5-5.85-6.31,7.07-12.59,14.1-18.89,21.16-2.82-3.4-5.62-6.78-8.43-10.16-2.19,2.12-4.35,4.2-6.51,6.28,1.22,1.4,2.43,2.8,3.65,4.19-.92.89-1.84,1.77-2.75,2.66,4.81,5.53,9.59,11.02,14.4,16.55,8.65-9.33,15.49-15.71,24.14-25.04-1.49-1.35-2.98-2.68-4.46-4.01,1.78-1.92,3.57-3.85,5.35-5.78Z"/>
  </g>
</svg>